<svg width="21" height="20" viewBox="0 0 21 20" fill="none" xmlns="http://www.w3.org/2000/svg">
<g clip-path="url(#clip0_211_74)">
<path d="M20.3219 7.27579C20.2044 7.27579 20.0869 7.24518 19.9785 7.1809L10.4998 1.48761L1.02423 7.1809C0.701849 7.37374 0.286067 7.26661 0.0962539 6.93909C-0.0935596 6.61158 0.0118924 6.18917 0.334274 5.99633L10.1534 0.0948929C10.3673 -0.0336655 10.6294 -0.0336655 10.8433 0.0948929L20.6654 5.99327C20.9878 6.18611 21.0932 6.60851 20.9034 6.93603C20.7769 7.15336 20.5509 7.27579 20.3189 7.27579H20.3219Z" fill="white"/>
<path d="M17.6315 20H12.7686C12.395 20 12.0907 19.6908 12.0907 19.3113V13.4221H8.90908V19.3113C8.90908 19.6908 8.60478 20 8.23118 20H3.36834C2.99473 20 2.69043 19.6908 2.69043 19.3113V8.18791C2.69043 7.80836 2.99473 7.49921 3.36834 7.49921C3.74194 7.49921 4.04624 7.80836 4.04624 8.18791V18.6226H7.55327V12.7334C7.55327 12.3538 7.85757 12.0447 8.23118 12.0447H12.7686C13.1422 12.0447 13.4465 12.3538 13.4465 12.7334V18.6226H16.9536V8.18791C16.9536 7.80836 17.2579 7.49921 17.6315 7.49921C18.0051 7.49921 18.3094 7.80836 18.3094 8.18791V19.3113C18.3094 19.6908 18.0051 20 17.6315 20Z" fill="white"/>
</g>
<defs>
<clipPath id="clip0_211_74">
<rect width="21" height="20" fill="white"/>
</clipPath>
</defs>
</svg>
