<svg width="70" height="65" viewBox="0 0 70 65" fill="none" xmlns="http://www.w3.org/2000/svg">
<g clip-path="url(#clip0_123_44)">
<path d="M1.0293 63.9628C4.53959 63.9628 7.64841 62.0336 9.52194 59.0984C11.3955 62.0336 14.5043 63.9628 18.0146 63.9628C21.5249 63.9628 24.6337 62.0336 26.5072 59.0984C28.3808 62.0336 31.4896 63.9628 34.9999 63.9628C38.5102 63.9628 41.619 62.0336 43.4925 59.0984C45.3661 62.0336 48.4749 63.9628 51.9852 63.9628C55.4955 63.9628 58.6043 62.0336 60.4778 59.0984C62.3514 62.0336 65.4602 63.9628 68.9705 63.9628" stroke="white" stroke-width="2" stroke-linecap="round" stroke-linejoin="round"/>
<path d="M23.5013 61.4217C12.5895 55.126 7.79248 41.3004 7.79248 41.3004L34.6601 27.6304" stroke="white" stroke-width="2" stroke-linecap="round" stroke-linejoin="round"/>
<path d="M46.6219 62.0959C58.4293 56.184 63.5866 41.2901 63.5866 41.2901L34.6602 27.6201" stroke="white" stroke-width="2" stroke-linecap="round" stroke-linejoin="round"/>
<path d="M42.144 60.3328L40.5896 49.6499H30.2749L28.4116 61.1937" stroke="white" stroke-width="2" stroke-linecap="round" stroke-linejoin="round"/>
<path d="M15.4414 37.1206V16.8852C15.4414 15.9621 16.1826 15.2153 17.0988 15.2153H52.8605C53.9929 15.2153 54.9193 16.1488 54.9193 17.2897V37.1102" stroke="white" stroke-width="2" stroke-linecap="round" stroke-linejoin="round"/>
<path d="M31.9219 14.8108V1.03711H38.4381V14.8108" stroke="white" stroke-width="2" stroke-linecap="round" stroke-linejoin="round"/>
<path d="M10.9321 47.7517L34.6601 35.5959" stroke="white" stroke-width="2" stroke-linecap="round" stroke-linejoin="round"/>
<path d="M59.9322 47.7517L34.6602 35.5959" stroke="white" stroke-width="2" stroke-linecap="round" stroke-linejoin="round"/>
<path d="M22.019 20.4014H52.4587" stroke="white" stroke-width="2" stroke-linecap="round" stroke-linejoin="round"/>
</g>
<defs>
<clipPath id="clip0_123_44">
<rect width="70" height="65" fill="white"/>
</clipPath>
</defs>
</svg>
